<svg width="4" height="12" viewBox="0 0 4 12" fill="none" xmlns="http://www.w3.org/2000/svg">
<path d="M1.99969 9.83301C2.22071 9.83301 2.43326 9.92087 2.58954 10.0771C2.74582 10.2334 2.83368 10.446 2.83368 10.667C2.83362 10.8317 2.78456 10.9929 2.69305 11.1299C2.60151 11.2668 2.47122 11.3735 2.31903 11.4365C2.16682 11.4996 1.99917 11.5165 1.83759 11.4844C1.67593 11.4522 1.52737 11.3724 1.41083 11.2559C1.29428 11.1393 1.21447 10.9908 1.18231 10.8291C1.15021 10.6675 1.16712 10.4999 1.23016 10.3477C1.29323 10.1955 1.39984 10.0652 1.5368 9.97363C1.67376 9.88213 1.83499 9.83307 1.99969 9.83301ZM1.99969 5.16699C2.22071 5.16699 2.43326 5.25485 2.58954 5.41113C2.74562 5.56738 2.83368 5.77914 2.83368 6C2.83368 6.16477 2.78457 6.32588 2.69305 6.46289C2.60153 6.59987 2.47121 6.70645 2.31903 6.76953C2.1668 6.83259 1.99919 6.8495 1.83759 6.81738C1.67593 6.78523 1.52737 6.70541 1.41083 6.58887C1.29437 6.47235 1.21445 6.32368 1.18231 6.16211C1.1503 6.00062 1.16716 5.83277 1.23016 5.68066C1.29326 5.52856 1.39988 5.39813 1.5368 5.30664C1.67374 5.21515 1.83501 5.16706 1.99969 5.16699ZM2.16278 0.515625C2.32439 0.547793 2.47302 0.627622 2.58954 0.744141C2.70599 0.86066 2.78494 1.00932 2.81708 1.1709C2.84921 1.33252 2.83326 1.5001 2.7702 1.65234C2.70713 1.80462 2.59963 1.9348 2.46259 2.02637C2.32562 2.11778 2.16437 2.16699 1.99969 2.16699C1.77888 2.16691 1.56702 2.07895 1.41083 1.92285C1.25455 1.76657 1.16669 1.55402 1.16669 1.33301C1.16675 1.1683 1.2158 1.00707 1.30731 0.870117C1.39887 0.733197 1.52916 0.626511 1.68134 0.563477C1.83356 0.500462 2.00119 0.483483 2.16278 0.515625Z" fill="black" stroke="black"/>
</svg>
